#!OML:ASF H:\BabyWalks\Project 1\Capture day 1\Session 1\baby.ASF
:FULLY-SPECIFIED
:DEGREES
1029
root 42.7609 17.4008 0.503185 -373.903 78.6843 -381.125
lowerback 19.3058 1.03394 1.20472
upperback 6.6089 1.88601 -0.77536
thorax -3.61073 1.09307 -1.92853
lowerneck 3.61046 4.63433 7.18303
upperneck -12.1827 5.88738 -9.85029
head -3.67413 3.19079 -4.43011
rclavicle 3.39922e-014 -7.95139e-016
rhumerus -40.2156 3.80055 -81.4191
rradius 48.5863
rwrist -1.6806
rhand -10.5036 -15.8395
rfingers 7.12502
rthumb 15.4987 -45.2382
lclavicle 3.39922e-014 -7.95139e-016
lhumerus -37.8884 -30.4363 78.2257
lradius 56.4596
lwrist 7.48402
lhand 3.94246 12.2058
lfingers 7.12502
lthumb 29.3608 39.9069
rfemur -0.0231566 15.9467 20.0083
rtibia 15.8067
rfoot -20.1612 9.20637
rtoes -3.80185
lfemur -27.7495 -0.680097 -11.9459
ltibia 37.4965
lfoot -19.2991 -7.05175
ltoes -3.08561
1030
root 42.7472 17.3944 0.511227 -373.993 78.7041 -381.094
lowerback 19.2562 1.03656 1.22433
upperback 6.58644 1.89125 -0.765097
thorax -3.6086 1.0948 -1.92876
lowerneck 3.63037 4.67054 7.18853
upperneck -12.196 5.94116 -9.81451
head -3.67797 3.21569 -4.42223
rclavicle 5.96354e-016 3.97569e-016
rhumerus -40.2111 3.75087 -81.4087
rradius 48.5852
rwrist -1.67031
rhand -10.5963 -15.8611
rfingers 7.12502
rthumb 15.4094 -45.2668
lclavicle 5.96354e-016 3.97569e-016
lhumerus -37.8489 -30.3069 78.2158
lradius 56.4844
lwrist 7.65279
lhand 3.9012 12.2112
lfingers 7.12502
lthumb 29.3214 39.9193
rfemur 0.106201 15.9039 20.0807
rtibia 15.7928
rfoot -20.2283 9.11067
rtoes -4.37608
lfemur -27.6826 -0.741594 -11.9095
ltibia 37.5388
lfoot -19.307 -7.03923
ltoes -3.09601
1031
root 42.7336 17.39 0.51966 -374.038 78.7237 -381.013
lowerback 19.2 1.0428 1.23596
upperback 6.56601 1.89968 -0.755988
thorax -3.60092 1.09817 -1.9261
lowerneck 3.64587 4.70439 7.18765
upperneck -12.2085 5.99198 -9.77011
head -3.68165 3.23886 -4.41043
rclavicle 2.78299e-015 -2.0276e-014
rhumerus -40.2138 3.70193 -81.402
rradius 48.5901
rwrist -1.66055
rhand -10.6682 -15.8741
rfingers 7.12502
rthumb 15.3401 -45.2851
lclavicle 2.78299e-015 -2.0276e-014
lhumerus -37.8122 -30.177 78.2178
lradius 56.4878
lwrist 7.88212
lhand 3.82254 12.2337
lfingers 7.12502
lthumb 29.2463 39.9549
rfemur 0.205533 15.9069 20.1456
rtibia 15.8327
rfoot -20.2822 9.04409
rtoes -4.61668
lfemur -27.5874 -0.809394 -11.881
ltibia 37.5348
lfoot -19.294 -7.02385
ltoes -3.10779
1032
root 42.7205 17.3884 0.528533 -374.045 78.7411 -380.892
lowerback 19.1396 1.05257 1.24056
upperback 6.54433 1.91118 -0.7479
thorax -3.5925 1.10296 -1.92107
lowerneck 3.66133 4.73578 7.17605
upperneck -12.2181 6.04023 -9.71092
head -3.68567 3.26036 -4.39219
rclavicle 3.57812e-015 -3.97569e-016
rhumerus -40.2263 3.65836 -81.4002
rradius 48.5974
rwrist -1.65096
rhand -10.7163 -15.8788
rfingers 7.12502
rthumb 15.2938 -45.2934
lclavicle 3.57812e-015 -3.97569e-016
lhumerus -37.7882 -30.0328 78.2325
lradius 56.475
lwrist 8.14291
lhand 3.71761 12.2754
lfingers 7.12502
lthumb 29.1461 40.0139
rfemur 0.276891 15.9763 20.2039
rtibia 15.9117
rfoot -20.2953 9.02897
rtoes -4.3248
lfemur -27.4634 -0.880914 -11.8587
ltibia 37.4878
lfoot -19.262 -7.00525
ltoes -3.12372
1033
root 42.7077 17.3874 0.537884 -374.008 78.7583 -380.724
lowerback 19.0705 1.06648 1.23824
upperback 6.52045 1.92639 -0.742369
thorax -3.58183 1.10946 -1.91538
lowerneck 3.67565 4.76257 7.16419
upperneck -12.2187 6.08301 -9.64544
head -3.68754 3.27864 -4.37154
rclavicle -3.27995e-014 -6.36111e-015
rhumerus -40.2523 3.61917 -81.4047
rradius 48.607
rwrist -1.64318
rhand -10.7341 -15.8859
rfingers 7.12502
rthumb 15.2766 -45.3017
lclavicle -3.27995e-014 -6.36111e-015
lhumerus -37.7839 -29.8921 78.2643
lradius 56.4443
lwrist 8.423
lhand 3.58591 12.3258
lfingers 7.12502
lthumb 29.0203 40.0861
rfemur 0.344756 16.0552 20.2602
rtibia 16.0078
rfoot -20.3242 8.99628
rtoes -4.00267
lfemur -27.3203 -0.96015 -11.8434
ltibia 37.4112
lfoot -19.2161 -6.98027
ltoes -3.13912
1034
root 42.6956 17.3868 0.547906 -373.954 78.7744 -380.536
lowerback 18.9877 1.08388 1.23031
upperback 6.49569 1.94478 -0.737371
thorax -3.56496 1.11748 -1.90728
lowerneck 3.69151 4.78507 7.14954
upperneck -12.2094 6.12085 -9.5717
head -3.68756 3.29398 -4.34754
rclavicle -6.55989e-015 5.12864e-014
rhumerus -40.2903 3.58986 -81.4166
rradius 48.6139
rwrist -1.63786
rhand -10.7358 -15.8859
rfingers 7.12502
rthumb 15.275 -45.3019
lclavicle -6.55989e-015 5.12864e-014
lhumerus -37.8011 -29.7418 78.3113
lradius 56.3987
lwrist 8.68079
lhand 3.44345 12.3776
lfingers 7.12502
lthumb 28.8842 40.1612
rfemur 0.420102 16.1498 20.3224
rtibia 16.102
rfoot -20.3642 8.93393
rtoes -3.64752
lfemur -27.1607 -1.0468 -11.829
ltibia 37.3126
lfoot -19.1607 -6.9471
ltoes -3.16029
1035
root 42.6839 17.3865 0.558758 -373.904 78.7881 -380.353
lowerback 18.8919 1.10426 1.21832
upperback 6.46677 1.96585 -0.73156
thorax -3.54589 1.1266 -1.89622
lowerneck 3.71514 4.80533 7.13221
upperneck -12.1887 6.15681 -9.48955
head -3.68611 3.30795 -4.3204
rclavicle 9.93923e-016 1.47101e-014
rhumerus -40.3407 3.57129 -81.4356
rradius 48.6148
rwrist -1.63202
rhand -10.7144 -15.8813
rfingers 7.12502
rthumb 15.2956 -45.2957
lclavicle 9.93923e-016 1.47101e-014
lhumerus -37.8485 -29.5832 78.3761
lradius 56.3398
lwrist 8.89334
lhand 3.29794 12.4233
lfingers 7.12502
lthumb 28.7452 40.2306
rfemur 0.508797 16.2641 20.3974
rtibia 16.1798
rfoot -20.4109 8.82954
rtoes -3.28048
lfemur -26.9885 -1.14218 -11.809
ltibia 37.1947
lfoot -19.0959 -6.90378
ltoes -3.19021
1036
root 42.6729 17.3867 0.57055 -373.84 78.8052 -380.156
lowerback 18.7739 1.12649 1.19589
upperback 6.437 1.98692 -0.727698
thorax -3.51637 1.13568 -1.88052
lowerneck 3.73471 4.82485 7.11758
upperneck -12.1513 6.19315 -9.39673
head -3.67928 3.3211 -4.28977
rclavicle 1.19271e-014 1.98785e-015
rhumerus -40.394 3.56501 -81.4664
rradius 48.6031
rwrist -1.63286
rhand -10.6888 -15.8679
rfingers 7.12502
rthumb 15.3203 -45.2805
lclavicle 1.19271e-014 1.98785e-015
lhumerus -37.9205 -29.4139 78.4504
lradius 56.2721
lwrist 9.03897
lhand 3.16242 12.4536
lfingers 7.12502
lthumb 28.6157 40.2828
rfemur 0.608165 16.3995 20.48
rtibia 16.2429
rfoot -20.4651 8.67788
rtoes -2.8858
lfemur -26.8037 -1.24978 -11.7895
ltibia 37.0529
lfoot -19.0207 -6.85081
ltoes -3.22836
1037
root 42.6632 17.3894 0.583507 -373.753 78.8301 -379.941
lowerback 18.6261 1.15017 1.16051
upperback 6.4064 2.00693 -0.72633
thorax -3.47259 1.14418 -1.85886
lowerneck 3.75244 4.84427 7.10459
upperneck -12.0955 6.23094 -9.29151
head -3.66701 3.33394 -4.25503
rclavicle -6.55989e-015 6.36111e-015
rhumerus -40.451 3.57117 -81.5082
rradius 48.5786
rwrist -1.6336
rhand -10.6586 -15.8464
rfingers 7.12502
rthumb 15.3493 -45.2567
lclavicle -6.55989e-015 6.36111e-015
lhumerus -38.016 -29.228 78.5327
lradius 56.1962
lwrist 9.0989
lhand 3.04059 12.4598
lfingers 7.12502
lthumb 28.4993 40.3085
rfemur 0.706287 16.6094 20.5645
rtibia 16.2987
rfoot -20.4815 8.53295
rtoes -2.00138
lfemur -26.5998 -1.37181 -11.7737
ltibia 36.8771
lfoot -18.9355 -6.78627
ltoes -3.27553
1038
root 42.6543 17.3934 0.597924 -373.665 78.8651 -379.731
lowerback 18.4506 1.17408 1.1105
upperback 6.37324 2.02404 -0.727656
thorax -3.4175 1.15111 -1.83021
lowerneck 3.75757 4.86506 7.09511
upperneck -12.0153 6.27259 -9.1672
head -3.64566 3.34705 -4.21394
rclavicle 3.57812e-015 -3.97569e-016
rhumerus -40.5045 3.5887 -81.5643
rradius 48.5333
rwrist -1.62841
rhand -10.6181 -15.8163
rfingers 7.12502
rthumb 15.3884 -45.2236
lclavicle 3.57812e-015 -3.97569e-016
lhumerus -38.1297 -29.0226 78.6137
lradius 56.117
lwrist 9.07771
lhand 2.94836 12.4436
lfingers 7.12502
lthumb 28.4112 40.3071
rfemur 0.80139 16.8725 20.6599
rtibia 16.3534
rfoot -20.4923 8.34868
rtoes -0.89197
lfemur -26.3849 -1.50789 -11.7551
ltibia 36.6657
lfoot -18.8347 -6.71572
ltoes -3.33552
1039
root 42.6462 17.3988 0.613627 -373.551 78.9158 -379.502
lowerback 18.2527 1.19732 1.04299
upperback 6.33389 2.0365 -0.733947
thorax -3.35784 1.15544 -1.79526
lowerneck 3.7518 4.8853 7.08725
upperneck -11.9087 6.31571 -9.02041
head -3.61533 3.35919 -4.16512
rclavicle 1.27222e-014 5.96354e-015
rhumerus -40.5611 3.60872 -81.6326
rradius 48.4714
rwrist -1.60653
rhand -10.5623 -15.7803
rfingers 7.12502
rthumb 15.4422 -45.1834
lclavicle 1.27222e-014 5.96354e-015
lhumerus -38.2628 -28.7973 78.694
lradius 56.0378
lwrist 8.99294
lhand 2.88833 12.4142
lfingers 7.12502
lthumb 28.3538 40.2872
rfemur 0.893104 17.183 20.7576
rtibia 16.4115
rfoot -20.5021 8.12931
rtoes 0.424074
lfemur -26.1588 -1.66202 -11.7416
ltibia 36.4174
lfoot -18.7171 -6.63972
ltoes -3.4015
